<svg width="36" height="36" viewBox="0 0 36 36" fill="none" xmlns="http://www.w3.org/2000/svg">
<rect width="36" height="36" rx="18" fill="#FEF2E5"/>
<g clip-path="url(#clip0_260_751)">
<path d="M27.0235 21.7422C27.7578 22.0469 28.1524 22.8516 27.9414 23.6211L27.8828 23.8359C27.1953 26.3594 24.75 28.5156 21.7735 27.8867C14.9375 26.4375 9.55862 21.0586 8.10941 14.2227C7.47659 11.2422 9.63675 8.80078 12.1602 8.11328L12.375 8.05468C13.1446 7.84375 13.9493 8.23828 14.2539 8.97265L15.836 12.7734C16.1055 13.418 15.918 14.1641 15.375 14.6094L13.5313 16.1172C14.8946 18.8633 17.1758 21.0703 19.9727 22.3398L21.3828 20.6172C21.8243 20.0742 22.5703 19.8906 23.2188 20.1562L27.0235 21.7422Z" fill="#F3702B"/>
</g>
<defs>
<clipPath id="clip0_260_751">
<rect width="20" height="20" fill="white" transform="matrix(0 1 -1 0 28 8)"/>
</clipPath>
</defs>
</svg>
