<svg width="48" height="48" viewBox="0 0 48 48" fill="none" xmlns="http://www.w3.org/2000/svg">
<rect width="48" height="48" rx="24" fill="white"/>
<g clip-path="url(#clip0_250_273)">
<g clip-path="url(#clip1_250_273)">
<path d="M34.8286 28.4906C35.7098 28.8562 36.1832 29.8219 35.9301 30.7453L35.8598 31.0031C35.0348 34.0312 32.1004 36.6187 28.5286 35.864C20.3254 34.125 13.8707 27.6703 12.1317 19.4672C11.3723 15.8906 13.9645 12.9609 16.9926 12.1359L17.2504 12.0656C18.1739 11.8125 19.1395 12.2859 19.5051 13.1672L21.4036 17.7281C21.727 18.5015 21.502 19.3969 20.8504 19.9312L18.6379 21.7406C20.2739 25.0359 23.0114 27.6844 26.3676 29.2078L28.0598 27.1406C28.5895 26.489 29.4848 26.2687 30.2629 26.5875L34.8286 28.4906Z" fill="#FF1515"/>
</g>
</g>
<defs>
<clipPath id="clip0_250_273">
<rect width="24" height="24" fill="white" transform="matrix(0 1 -1 0 36 12)"/>
</clipPath>
<clipPath id="clip1_250_273">
<rect width="23.9987" height="24" fill="white" transform="matrix(0 1 -1 0 35.998 11.9977)"/>
</clipPath>
</defs>
</svg>
