<svg width="48" height="48" viewBox="0 0 48 48" fill="none" xmlns="http://www.w3.org/2000/svg">
<rect width="48" height="48" rx="24" fill="white"/>
<g transform="translate(24,24) scale(1.5) translate(-16,-16)">
<path d="M29.716 22.8V8.4C29.716 7.072 28.644 6 27.316 6H4.9C3.572 6 2.5 7.072 2.5 8.4V22.8C2.5 24.128 3.572 25.2 4.9 25.2H27.316C28.644 25.2 29.716 24.128 29.716 22.8ZM27.62 8.224C28.148 8.752 27.86 9.296 27.572 9.568L21.076 15.52L27.316 22.016C27.508 22.24 27.636 22.592 27.412 22.832C27.204 23.088 26.724 23.072 26.516 22.912L19.524 16.944L16.1 20.064L12.692 16.944L5.7 22.912C5.492 23.072 5.012 23.088 4.804 22.832C4.58 22.592 4.708 22.24 4.9 22.016L11.14 15.52L4.644 9.568C4.356 9.296 4.068 8.752 4.596 8.224C5.124 7.696 5.668 7.952 6.116 8.336L16.1 16.4L26.1 8.336C26.548 7.952 27.092 7.696 27.62 8.224Z" fill="#ECA91C"/>
</g>
</svg>
