<svg width="36" height="36" viewBox="0 0 36 36" fill="none" xmlns="http://www.w3.org/2000/svg">
<rect width="36" height="36" rx="18" fill="#FEF2E5"/>
<path d="M25 15C25 14.0807 24.8189 13.1705 24.4672 12.3212C24.1154 11.4719 23.5998 10.7003 22.9497 10.0503C22.2997 9.40024 21.5281 8.88463 20.6788 8.53284C19.8295 8.18106 18.9193 8 18 8C17.0807 8 16.1705 8.18106 15.3212 8.53284C14.4719 8.88463 13.7003 9.40024 13.0503 10.0503C12.4002 10.7003 11.8846 11.4719 11.5328 12.3212C11.1811 13.1705 11 14.0807 11 15C11 16.387 11.409 17.677 12.105 18.765H12.097L18 28L23.903 18.765H23.896C24.6169 17.6416 25.0001 16.3348 25 15ZM18 18C17.2044 18 16.4413 17.6839 15.8787 17.1213C15.3161 16.5587 15 15.7956 15 15C15 14.2044 15.3161 13.4413 15.8787 12.8787C16.4413 12.3161 17.2044 12 18 12C18.7956 12 19.5587 12.3161 20.1213 12.8787C20.6839 13.4413 21 14.2044 21 15C21 15.7956 20.6839 16.5587 20.1213 17.1213C19.5587 17.6839 18.7956 18 18 18Z" fill="#F3702B"/>
</svg>
