<svg width="38" height="38" viewBox="0 0 38 38" fill="none" xmlns="http://www.w3.org/2000/svg">
<rect width="38" height="38" rx="19" fill="#FEF2E5"/>
<path d="M29.8002 24.4V13.6C29.8002 12.604 28.9962 11.8 28.0002 11.8H11.1882C10.1922 11.8 9.38818 12.604 9.38818 13.6V24.4C9.38818 25.396 10.1922 26.2 11.1882 26.2H28.0002C28.9962 26.2 29.8002 25.396 29.8002 24.4ZM28.2282 13.468C28.6242 13.864 28.4082 14.272 28.1922 14.476L23.3202 18.94L28.0002 23.812C28.1442 23.98 28.2402 24.244 28.0722 24.424C27.9162 24.616 27.5562 24.604 27.4002 24.484L22.1562 20.008L19.5882 22.348L17.0322 20.008L11.7882 24.484C11.6322 24.604 11.2722 24.616 11.1162 24.424C10.9482 24.244 11.0442 23.98 11.1882 23.812L15.8682 18.94L10.9962 14.476C10.7802 14.272 10.5642 13.864 10.9602 13.468C11.3562 13.072 11.7642 13.264 12.1002 13.552L19.5882 19.6L27.0882 13.552C27.4242 13.264 27.8322 13.072 28.2282 13.468Z" fill="#F3702B"/>
</svg>
