<svg width="40" height="40" viewBox="0 0 40 40" fill="none" xmlns="http://www.w3.org/2000/svg">
<path d="M25.2187 4.16665C23.577 3.6259 21.8227 3.33331 20 3.33331C10.7953 3.33331 3.33337 10.7952 3.33337 20C3.33337 29.2046 10.7953 36.6666 20 36.6666C29.2047 36.6666 36.6667 29.2046 36.6667 20C36.6667 18.258 36.3994 16.5784 35.9037 15" stroke="#6EA3DB" stroke-width="3.5625" stroke-linecap="round"/>
<path d="M28.3333 20C28.3333 24.6024 24.6023 28.3334 20 28.3334C15.3976 28.3334 11.6666 24.6024 11.6666 20C11.6666 15.3977 15.3976 11.6667 20 11.6667" stroke="#6EA3DB" stroke-width="3.5625" stroke-linecap="round" stroke-linejoin="round"/>
<path d="M32.5 7.49998L20 20M32.5 7.49998V3.33331M32.5 7.49998H36.6667" stroke="#6EA3DB" stroke-width="3.5625" stroke-linecap="round"/>
</svg>
