<svg width="43" height="43" viewBox="0 0 43 43" fill="none" xmlns="http://www.w3.org/2000/svg">
<path fill-rule="evenodd" clip-rule="evenodd" d="M38.5208 15.2292C38.5208 12.7137 38.5208 11.4542 37.917 10.5512C37.6555 10.1597 37.3194 9.82367 36.928 9.56217C36.1378 9.03362 35.0754 8.96733 33.1386 8.96017C33.1446 9.48333 33.1469 10.0268 33.1458 10.5906V12.9896H34.9374C35.2938 12.9896 35.6356 13.1312 35.8876 13.3832C36.1396 13.6352 36.2812 13.977 36.2812 14.3334C36.2812 14.6898 36.1396 15.0315 35.8876 15.2835C35.6356 15.5356 35.2938 15.6771 34.9374 15.6771H33.1458V18.3646H34.9374C35.2938 18.3646 35.6356 18.5062 35.8876 18.7582C36.1396 19.0102 36.2812 19.352 36.2812 19.7084C36.2812 20.0648 36.1396 20.4065 35.8876 20.6585C35.6356 20.9105 35.2938 21.0521 34.9374 21.0521H33.1458V23.7396H34.9374C35.2938 23.7396 35.6356 23.8812 35.8876 24.1332C36.1396 24.3852 36.2812 24.727 36.2812 25.0834C36.2812 25.4398 36.1396 25.7815 35.8876 26.0335C35.6356 26.2855 35.2938 26.4271 34.9374 26.4271H33.1458V38.073H30.4583V10.75C30.4583 7.37096 30.4583 5.68321 29.4083 4.63329C28.3584 3.58337 26.6707 3.58337 23.2916 3.58337H19.7083C16.3292 3.58337 14.6414 3.58337 13.5915 4.63329C12.5416 5.68321 12.5416 7.37096 12.5416 10.75V38.073H9.85408V26.4271H8.06242C7.70603 26.4271 7.36425 26.2855 7.11224 26.0335C6.86024 25.7815 6.71867 25.4398 6.71867 25.0834C6.71867 24.727 6.86024 24.3852 7.11224 24.1332C7.36425 23.8812 7.70603 23.7396 8.06242 23.7396H9.85408V21.0521H8.06242C7.70603 21.0521 7.36425 20.9105 7.11224 20.6585C6.86024 20.4065 6.71867 20.0648 6.71867 19.7084C6.71867 19.352 6.86024 19.0102 7.11224 18.7582C7.36425 18.5062 7.70603 18.3646 8.06242 18.3646H9.85408V15.6771H8.06242C7.70603 15.6771 7.36425 15.5356 7.11224 15.2835C6.86024 15.0315 6.71867 14.6898 6.71867 14.3334C6.71867 13.977 6.86024 13.6352 7.11224 13.3832C7.36425 13.1312 7.70603 12.9896 8.06242 12.9896H9.85408V10.5888C9.85289 10.0274 9.85528 9.48393 9.86125 8.95837C7.92446 8.96733 6.862 9.03362 6.07188 9.56217C5.68045 9.82367 5.34438 10.1597 5.08288 10.5512C4.47908 11.4542 4.47909 12.7137 4.47909 15.2292V38.073H3.58325C3.22687 38.073 2.88508 38.2145 2.63308 38.4665C2.38108 38.7185 2.2395 39.0603 2.2395 39.4167C2.2395 39.7731 2.38108 40.1149 2.63308 40.3669C2.88508 40.6189 3.22687 40.7605 3.58325 40.7605H39.4166C39.773 40.7605 40.1148 40.6189 40.3668 40.3669C40.6188 40.1149 40.7603 39.7731 40.7603 39.4167C40.7603 39.0603 40.6188 38.7185 40.3668 38.4665C40.1148 38.2145 39.773 38.073 39.4166 38.073H38.5208V15.2292ZM21.4999 7.61462C21.8563 7.61462 22.1981 7.7562 22.4501 8.0082C22.7021 8.2602 22.8437 8.60199 22.8437 8.95837V11.198H25.0833C25.4396 11.198 25.7814 11.3395 26.0334 11.5915C26.2854 11.8435 26.427 12.1853 26.427 12.5417C26.427 12.8981 26.2854 13.2399 26.0334 13.4919C25.7814 13.7439 25.4396 13.8855 25.0833 13.8855H22.8437V16.125C22.8437 16.4814 22.7021 16.8232 22.4501 17.0752C22.1981 17.3272 21.8563 17.4688 21.4999 17.4688C21.1435 17.4688 20.8017 17.3272 20.5497 17.0752C20.2977 16.8232 20.1562 16.4814 20.1562 16.125V13.8855H17.9166C17.5602 13.8855 17.2184 13.7439 16.9664 13.4919C16.7144 13.2399 16.5728 12.8981 16.5728 12.5417C16.5728 12.1853 16.7144 11.8435 16.9664 11.5915C17.2184 11.3395 17.5602 11.198 17.9166 11.198H20.1562V8.95837C20.1562 8.60199 20.2977 8.2602 20.5497 8.0082C20.8017 7.7562 21.1435 7.61462 21.4999 7.61462ZM16.5728 21.5C16.5728 21.1437 16.7144 20.8019 16.9664 20.5499C17.2184 20.2979 17.5602 20.1563 17.9166 20.1563H25.0833C25.4396 20.1563 25.7814 20.2979 26.0334 20.5499C26.2854 20.8019 26.427 21.1437 26.427 21.5C26.427 21.8564 26.2854 22.1982 26.0334 22.4502C25.7814 22.7022 25.4396 22.8438 25.0833 22.8438H17.9166C17.5602 22.8438 17.2184 22.7022 16.9664 22.4502C16.7144 22.1982 16.5728 21.8564 16.5728 21.5ZM16.5728 26.875C16.5728 26.5187 16.7144 26.1769 16.9664 25.9249C17.2184 25.6729 17.5602 25.5313 17.9166 25.5313H25.0833C25.4396 25.5313 25.7814 25.6729 26.0334 25.9249C26.2854 26.1769 26.427 26.5187 26.427 26.875C26.427 27.2314 26.2854 27.5732 26.0334 27.8252C25.7814 28.0772 25.4396 28.2188 25.0833 28.2188H17.9166C17.5602 28.2188 17.2184 28.0772 16.9664 27.8252C16.7144 27.5732 16.5728 27.2314 16.5728 26.875ZM21.4999 32.698C21.8563 32.698 22.1981 32.8395 22.4501 33.0915C22.7021 33.3435 22.8437 33.6853 22.8437 34.0417V38.073H20.1562V34.0417C20.1562 33.6853 20.2977 33.3435 20.5497 33.0915C20.8017 32.8395 21.1435 32.698 21.4999 32.698Z" fill="#9E51EF"/>
</svg>
