<svg width="43" height="43" viewBox="0 0 43 43" fill="none" xmlns="http://www.w3.org/2000/svg">
<path fill-rule="evenodd" clip-rule="evenodd" d="M38.5209 15.2292C38.5209 12.7137 38.5209 11.4542 37.9171 10.5512C37.6556 10.1597 37.3195 9.82367 36.9281 9.56217C36.138 9.03362 35.0755 8.96733 33.1387 8.96017C33.1447 9.48333 33.1471 10.0268 33.1459 10.5906V12.9896H34.9375C35.2939 12.9896 35.6357 13.1312 35.8877 13.3832C36.1397 13.6352 36.2813 13.977 36.2813 14.3334C36.2813 14.6898 36.1397 15.0315 35.8877 15.2835C35.6357 15.5356 35.2939 15.6771 34.9375 15.6771H33.1459V18.3646H34.9375C35.2939 18.3646 35.6357 18.5062 35.8877 18.7582C36.1397 19.0102 36.2813 19.352 36.2813 19.7084C36.2813 20.0648 36.1397 20.4065 35.8877 20.6585C35.6357 20.9105 35.2939 21.0521 34.9375 21.0521H33.1459V23.7396H34.9375C35.2939 23.7396 35.6357 23.8812 35.8877 24.1332C36.1397 24.3852 36.2813 24.727 36.2813 25.0834C36.2813 25.4398 36.1397 25.7815 35.8877 26.0335C35.6357 26.2855 35.2939 26.4271 34.9375 26.4271H33.1459V38.073H30.4584V10.75C30.4584 7.37096 30.4584 5.68321 29.4085 4.63329C28.3585 3.58337 26.6708 3.58337 23.2917 3.58337H19.7084C16.3293 3.58337 14.6415 3.58337 13.5916 4.63329C12.5417 5.68321 12.5417 7.37096 12.5417 10.75V38.073H9.85421V26.4271H8.06254C7.70616 26.4271 7.36437 26.2855 7.11237 26.0335C6.86036 25.7815 6.71879 25.4398 6.71879 25.0834C6.71879 24.727 6.86036 24.3852 7.11237 24.1332C7.36437 23.8812 7.70616 23.7396 8.06254 23.7396H9.85421V21.0521H8.06254C7.70616 21.0521 7.36437 20.9105 7.11237 20.6585C6.86036 20.4065 6.71879 20.0648 6.71879 19.7084C6.71879 19.352 6.86036 19.0102 7.11237 18.7582C7.36437 18.5062 7.70616 18.3646 8.06254 18.3646H9.85421V15.6771H8.06254C7.70616 15.6771 7.36437 15.5356 7.11237 15.2835C6.86036 15.0315 6.71879 14.6898 6.71879 14.3334C6.71879 13.977 6.86036 13.6352 7.11237 13.3832C7.36437 13.1312 7.70616 12.9896 8.06254 12.9896H9.85421V10.5888C9.85301 10.0274 9.8554 9.48393 9.86137 8.95837C7.92458 8.96733 6.86212 9.03362 6.072 9.56217C5.68057 9.82367 5.3445 10.1597 5.083 10.5512C4.47921 11.4542 4.47921 12.7137 4.47921 15.2292V38.073H3.58337C3.22699 38.073 2.8852 38.2145 2.6332 38.4665C2.3812 38.7185 2.23962 39.0603 2.23962 39.4167C2.23962 39.7731 2.3812 40.1149 2.6332 40.3669C2.8852 40.6189 3.22699 40.7605 3.58337 40.7605H39.4167C39.7731 40.7605 40.1149 40.6189 40.3669 40.3669C40.6189 40.1149 40.7605 39.7731 40.7605 39.4167C40.7605 39.0603 40.6189 38.7185 40.3669 38.4665C40.1149 38.2145 39.7731 38.073 39.4167 38.073H38.5209V15.2292ZM21.5 7.61462C21.8564 7.61462 22.1982 7.7562 22.4502 8.0082C22.7022 8.2602 22.8438 8.60199 22.8438 8.95837V11.198H25.0834C25.4398 11.198 25.7815 11.3395 26.0335 11.5915C26.2855 11.8435 26.4271 12.1853 26.4271 12.5417C26.4271 12.8981 26.2855 13.2399 26.0335 13.4919C25.7815 13.7439 25.4398 13.8855 25.0834 13.8855H22.8438V16.125C22.8438 16.4814 22.7022 16.8232 22.4502 17.0752C22.1982 17.3272 21.8564 17.4688 21.5 17.4688C21.1437 17.4688 20.8019 17.3272 20.5499 17.0752C20.2979 16.8232 20.1563 16.4814 20.1563 16.125V13.8855H17.9167C17.5603 13.8855 17.2185 13.7439 16.9665 13.4919C16.7145 13.2399 16.573 12.8981 16.573 12.5417C16.573 12.1853 16.7145 11.8435 16.9665 11.5915C17.2185 11.3395 17.5603 11.198 17.9167 11.198H20.1563V8.95837C20.1563 8.60199 20.2979 8.2602 20.5499 8.0082C20.8019 7.7562 21.1437 7.61462 21.5 7.61462ZM16.573 21.5C16.573 21.1437 16.7145 20.8019 16.9665 20.5499C17.2185 20.2979 17.5603 20.1563 17.9167 20.1563H25.0834C25.4398 20.1563 25.7815 20.2979 26.0335 20.5499C26.2855 20.8019 26.4271 21.1437 26.4271 21.5C26.4271 21.8564 26.2855 22.1982 26.0335 22.4502C25.7815 22.7022 25.4398 22.8438 25.0834 22.8438H17.9167C17.5603 22.8438 17.2185 22.7022 16.9665 22.4502C16.7145 22.1982 16.573 21.8564 16.573 21.5ZM16.573 26.875C16.573 26.5187 16.7145 26.1769 16.9665 25.9249C17.2185 25.6729 17.5603 25.5313 17.9167 25.5313H25.0834C25.4398 25.5313 25.7815 25.6729 26.0335 25.9249C26.2855 26.1769 26.4271 26.5187 26.4271 26.875C26.4271 27.2314 26.2855 27.5732 26.0335 27.8252C25.7815 28.0772 25.4398 28.2188 25.0834 28.2188H17.9167C17.5603 28.2188 17.2185 28.0772 16.9665 27.8252C16.7145 27.5732 16.573 27.2314 16.573 26.875ZM21.5 32.698C21.8564 32.698 22.1982 32.8395 22.4502 33.0915C22.7022 33.3435 22.8438 33.6853 22.8438 34.0417V38.073H20.1563V34.0417C20.1563 33.6853 20.2979 33.3435 20.5499 33.0915C20.8019 32.8395 21.1437 32.698 21.5 32.698Z" fill="#3272EE"/>
</svg>
