<svg width="25" height="25" viewBox="0 0 25 25" fill="none" xmlns="http://www.w3.org/2000/svg">
<path fill-rule="evenodd" clip-rule="evenodd" d="M5.208 0C3.8271 -1.01824e-07 2.50273 0.548424 1.52609 1.52468C0.549463 2.50094 0.0005303 3.8251 0 5.206V19.094C0 20.4752 0.548698 21.7999 1.52539 22.7766C2.50208 23.7533 3.82675 24.302 5.208 24.302H19.096C20.4769 24.3015 21.8011 23.7525 22.7773 22.7759C23.7536 21.7993 24.302 20.4749 24.302 19.094V5.206C24.3015 3.82545 23.7528 2.50159 22.7766 1.52539C21.8004 0.549188 20.4766 0.000530065 19.096 0H5.208ZM20.594 5.214C20.594 5.61182 20.436 5.99336 20.1547 6.27466C19.8734 6.55596 19.4918 6.714 19.094 6.714C18.6962 6.714 18.3146 6.55596 18.0333 6.27466C17.752 5.99336 17.594 5.61182 17.594 5.214C17.594 4.81618 17.752 4.43464 18.0333 4.15334C18.3146 3.87204 18.6962 3.714 19.094 3.714C19.4918 3.714 19.8734 3.87204 20.1547 4.15334C20.436 4.43464 20.594 4.81618 20.594 5.214ZM12.154 7.99C11.0507 7.99 9.99259 8.42828 9.21244 9.20844C8.43229 9.98859 7.994 11.0467 7.994 12.15C7.994 13.2533 8.43229 14.3114 9.21244 15.0916C9.99259 15.8717 11.0507 16.31 12.154 16.31C13.2573 16.31 14.3154 15.8717 15.0956 15.0916C15.8757 14.3114 16.314 13.2533 16.314 12.15C16.314 11.0467 15.8757 9.98859 15.0956 9.20844C14.3154 8.42828 13.2573 7.99 12.154 7.99ZM5.992 12.15C5.992 10.5163 6.641 8.94945 7.79622 7.79422C8.95145 6.639 10.5183 5.99 12.152 5.99C13.7857 5.99 15.3526 6.639 16.5078 7.79422C17.663 8.94945 18.312 10.5163 18.312 12.15C18.312 13.7837 17.663 15.3506 16.5078 16.5058C15.3526 17.661 13.7857 18.31 12.152 18.31C10.5183 18.31 8.95145 17.661 7.79622 16.5058C6.641 15.3506 5.992 13.7837 5.992 12.15Z" fill="#F3702B"/>
</svg>
