<svg width="57" height="57" viewBox="0 0 57 57" fill="none" xmlns="http://www.w3.org/2000/svg">
<path d="M35.9366 5.9375C33.5972 5.16693 31.0973 4.75 28.5 4.75C15.3832 4.75 4.75 15.3832 4.75 28.5C4.75 41.6166 15.3832 52.25 28.5 52.25C41.6166 52.25 52.25 41.6166 52.25 28.5C52.25 26.0177 51.8691 23.6242 51.1627 21.375" stroke="#6EA3DB" stroke-width="3.5625" stroke-linecap="round"/>
<path d="M40.375 28.5C40.375 35.0583 35.0583 40.375 28.5 40.375C21.9416 40.375 16.625 35.0583 16.625 28.5C16.625 21.9416 21.9416 16.625 28.5 16.625" stroke="#6EA3DB" stroke-width="3.5625" stroke-linecap="round" stroke-linejoin="round"/>
<path d="M46.3125 10.6875L28.5 28.5M46.3125 10.6875V4.75M46.3125 10.6875H52.25" stroke="#6EA3DB" stroke-width="3.5625" stroke-linecap="round"/>
</svg>
