<svg width="25" height="25" viewBox="0 0 25 25" fill="none" xmlns="http://www.w3.org/2000/svg">
<path fill-rule="evenodd" clip-rule="evenodd" d="M12.3328 5.80501e-08C10.1633 -0.00021245 8.03373 0.583036 6.16715 1.68864C4.30057 2.79424 2.76568 4.3815 1.72331 6.28411C0.680934 8.18672 0.169438 10.3347 0.242412 12.5029C0.315386 14.6711 0.970145 16.7798 2.13809 18.608L0.0820855 23.3653C0.00683806 23.5394 -0.0173572 23.7313 0.0123227 23.9186C0.0420026 24.1059 0.124334 24.2809 0.249711 24.4232C0.375089 24.5655 0.538343 24.6692 0.720427 24.7222C0.902512 24.7753 1.09592 24.7754 1.27809 24.7227L7.13809 23.0227C8.77685 23.8008 10.5697 24.2004 12.3838 24.1919C14.1979 24.1833 15.9869 23.7668 17.6182 22.9732C19.2495 22.1795 20.6815 21.0291 21.808 19.6071C22.9345 18.1852 23.7267 16.528 24.126 14.7583C24.5253 12.9887 24.5214 11.1519 24.1147 9.38392C23.7079 7.61597 22.9087 5.96215 21.7762 4.54492C20.6437 3.12769 19.2069 1.98334 17.5723 1.19661C15.9376 0.40988 14.1469 0.000916172 12.3328 5.80501e-08ZM14.1621 15.7667C13.6661 16.06 12.5794 16.1493 10.5141 14.084C8.44875 12.0187 8.53808 10.9333 8.83142 10.436C9.57808 10.36 10.2941 9.86 10.9581 9.196C11.4501 8.704 11.0514 7.51067 10.0701 6.52933C9.08742 5.54667 7.89409 5.14933 7.40342 5.64C4.24075 8.80133 5.82475 12.9493 8.73675 15.8627C11.6888 18.8147 15.7208 20.4333 18.9594 17.196C19.4501 16.704 19.0527 15.5107 18.0701 14.5293C17.0874 13.5467 15.8941 13.1493 15.4034 13.64C14.7381 14.304 14.2381 15.02 14.1634 15.7667" fill="#F3702B"/>
</svg>
